<svg xmlns="http://www.w3.org/2000/svg" viewBox="0 0 665.25 420"><defs><style>.cls-1{fill:#e1e8f6;}.cls-1,.cls-16,.cls-17,.cls-18,.cls-19,.cls-2,.cls-20,.cls-21,.cls-22,.cls-23,.cls-24,.cls-25,.cls-26,.cls-29,.cls-3,.cls-32,.cls-33,.cls-34,.cls-35,.cls-36,.cls-38,.cls-39,.cls-4,.cls-40,.cls-41,.cls-42,.cls-43,.cls-44,.cls-45,.cls-46,.cls-47,.cls-48,.cls-49,.cls-5,.cls-50,.cls-52,.cls-53,.cls-54,.cls-55,.cls-56,.cls-57,.cls-58,.cls-59,.cls-6,.cls-60,.cls-63,.cls-64,.cls-7,.cls-8,.cls-9{fill-rule:evenodd;}.cls-10,.cls-2{fill:#9fb2d9;}.cls-3{fill:#c9d3ec;}.cls-4{fill:#b1c1e4;}.cls-5{fill:#bdcae8;}.cls-11,.cls-6{fill:#b4c5e6;}.cls-12,.cls-7{fill:#fff;}.cls-8{fill:#ebf2f3;}.cls-61,.cls-9{fill:#c0cdea;}.cls-13,.cls-21,.cls-26{fill:#00000f;}.cls-14,.cls-35{fill:#141a33;}.cls-15{fill:#0e173f;}.cls-16{fill:#030822;}.cls-17,.cls-27{fill:#e13c83;}.cls-18,.cls-28{fill:#b83470;}.cls-19,.cls-31{fill:#2c3049;}.cls-20,.cls-30{fill:#f5ac83;}.cls-22{fill:#ee9073;}.cls-23{fill:#301814;}.cls-24{fill:#e94d90;}.cls-25{fill:#e9695b;}.cls-26{stroke:#1a1a18;stroke-miterlimit:22.93;stroke-width:0.57px;}.cls-29{fill:#e27e67;}.cls-32{fill:#ed7862;}.cls-33{fill:#563f2f;}.cls-34{fill:#a36e50;}.cls-36{fill:#f08a71;}.cls-37,.cls-52{fill:#101537;}.cls-38{fill:#f6f5f4;}.cls-39{fill:#cfc9d0;}.cls-40{fill:#ea574d;}.cls-41{fill:#d84743;}.cls-42{fill:#3f4154;}.cls-43{fill:#575a6d;}.cls-44{fill:#d7bda4;}.cls-45{fill:#bf8862;}.cls-46{fill:#d49f81;}.cls-47{fill:#1c2b3f;}.cls-48{fill:#1874ba;}.cls-49{fill:#002846;}.cls-50,.cls-51{fill:#3b405f;}.cls-53{fill:#a8a6b6;}.cls-54{fill:#9895a2;}.cls-55{fill:#f3f2f4;}.cls-56{fill:#d4d1d8;}.cls-57{fill:#3b3a3a;}.cls-58{fill:#242525;}.cls-59{fill:#c8dee1;}.cls-60{fill:#7a9297;}.cls-62,.cls-64{fill:#e4e1e8;}.cls-63{fill:#aeabba;}</style></defs><title>Asset 1</title><g id="Layer_2" data-name="Layer 2"><g id="OBJECTS"><path class="cls-1" d="M119.45,293.52H59.08A59.25,59.25,0,0,0,0,352.6H0a59.25,59.25,0,0,0,59.08,59.08h510.5c52.62,0,95.67-43.05,95.67-95.66h0c0-52.61-43-95.66-95.67-95.66h0a40.57,40.57,0,0,1-40.45-40.45h0a40.57,40.57,0,0,1,40.45-40.45h48.68a42.17,42.17,0,0,0,42-42h0a42.18,42.18,0,0,0-42-42.06H556.7A16.42,16.42,0,0,1,540.33,39h0A16.42,16.42,0,0,1,556.7,22.6h10.85a11.33,11.33,0,0,0,11.3-11.3h0A11.33,11.33,0,0,0,567.55,0h-71.2c-15,0-16.67,17.72-54.55,17.72H354a14.78,14.78,0,0,0-14.75,14.74h0A14.79,14.79,0,0,0,354,47.2h14.15a21.44,21.44,0,0,1,21.37,21.37h0a21.43,21.43,0,0,1-21.37,21.36H325.51c-57.55,0-65.67,15-75.75,44.95s-62.42,32.32-62.42,32.32H115.77a32.29,32.29,0,0,0-32.2,32.2h0a32.29,32.29,0,0,0,32.2,32.19h3.68a31.07,31.07,0,0,1,31,31h0a31.06,31.06,0,0,1-31,31ZM599.26,22.6a11.3,11.3,0,1,1,11.3-11.3A11.3,11.3,0,0,1,599.26,22.6Z"/><path class="cls-2" d="M201.48,411.68h.58v-9h65.76v9h.58v-9h65.76v9h.59v-9H400.5v9h.58v-9h65.77v9h.58v-9h65.76v9h.58v-9h65.75v4.16l.58-.19v-4h9.83l1.23-.58H566.94V383h65.75v4.71l.58-.52V383h4.4l.57-.58H600.1V363.38h52.51l.33-.58H633.27V343.72h27.85l.18-.58H600.1V324.07h64.8c0-.2,0-.39.05-.58H633.27V304.41h31.26l-.06-.58H600.1V284.75H660c-.07-.19-.13-.38-.2-.58H633.27V265.1h17.19l-.36-.58h-50V245.44H634l-.64-.58h-.08v-.06l-.58-.52v.58H566.94V225.79h34.33l-1.75-.61v0H533.77V206.13h5.08c-.16-.19-.33-.38-.49-.58H500.6V186.48h29.07l-.09-.59H467.43V166.82h63.89c.06-.2.13-.39.2-.58H500.6V147.16h45.3l.82-.58h-13V127.51h65.75v11.94h.58V127.51h47.44l.59-.58H633.27V107.85H659c0-.19.1-.39.14-.58h-59V88.19h59.19c0-.19-.09-.38-.13-.58H633.27V68.54h15.51l-.56-.58H600.1V55.34h-.58V68H533.77V48.88h9.92l-.42-.58H500.6V29.23h43l.45-.58H533.77V9.57h45c0-.19-.07-.39-.11-.58H566.94V0h-.59V9H500.6V0H500V9H477.44l-.94.58h56.69V28.65H467.43V13.9l-.58.2V28.65H401.08V17.72h-.58V28.65H339.73c-.06.19-.1.38-.15.58h27.75v18h.59v-18h65.76V48.3H374.86c.53.18,1,.37,1.54.58h24.1V68h-11c0,.19,0,.38,0,.58h44.19V87.61H377.77c-.4.21-.81.4-1.23.58h24v19.08H334.75V89.93h-.59v17.34H268.4v-5l-.58.46v4.54H263.2c-.17.19-.33.38-.49.58H301v19.08H252.56l-.21.58h15.47v19.07H242.67c-.18.2-.36.39-.55.58H301v19.08H235.23V152.9l-.58.4v12.94H196.52c-1.75.25-3.31.44-4.63.58h9.59v19.07h-50l.18.59h16.66v19.07h-7.26c.14.2.29.39.43.58h40v19.08H183.09l1.07.58h50.49v8.81l.58.11v-8.92H301v19.07H258.71l.82.58h8.29v7.15l.58.6v-7.75h65.76v19.08H277c.12.19.23.38.34.58H301v19.07h-16.3c0,.2.07.39.11.58h49.36v19.08H285.62c0,.19-.05.39-.07.58H301v19.08H280.16l-.28.58h54.28v19.07H268.4v-2.4l-.58.6v1.8H266l-.62.58H301V362.8H235.23v-3.58l-.58.11v3.47H189.17c-.67.18-1.33.37-2,.58h14.3v19.08H157.89l-.5.58h10.92v19.07H146.08l-.22.58h55.62v9ZM566.35,383v19.07H500.6V383h65.75ZM500,383v19.07H434.26V383H500Zm-66.34,0v19.07H367.92V383h65.76Zm-66.35,0v19.07H301.58V383h65.75ZM301,383v19.07H235.23V383H301Zm-66.34,0v19.07H168.9V383h65.75Zm364.87-19.66v19.08H533.77V363.38h65.75Zm-66.33,0v19.08H467.43V363.38h65.76Zm-66.34,0v19.08H401.08V363.38h65.77Zm-66.35,0v19.08H334.75V363.38H400.5Zm-66.34,0v19.08H268.4V363.38h65.76Zm-66.34,0v19.08H202.06V363.38h65.76Zm364.87-19.66V362.8H566.94V343.72h65.75Zm-66.34,0V362.8H500.6V343.72h65.75Zm-66.33,0V362.8H434.26V343.72H500Zm-66.34,0V362.8H367.92V343.72h65.76Zm-66.35,0V362.8H301.58V343.72h65.75Zm232.19-19.65v19.07H533.77V324.07h65.75Zm-66.33,0v19.07H467.43V324.07h65.76Zm-66.34,0v19.07H401.08V324.07h65.77Zm-66.35,0v19.07H334.75V324.07H400.5Zm232.19-19.66v19.08H566.94V304.41h65.75Zm-66.34,0v19.08H500.6V304.41h65.75Zm-66.33,0v19.08H434.26V304.41H500Zm-66.34,0v19.08H367.92V304.41h65.76Zm-66.35,0v19.08H301.58V304.41h65.75Zm232.19-19.66v19.08H533.77V284.75h65.75Zm-66.33,0v19.08H467.43V284.75h65.76Zm-66.34,0v19.08H401.08V284.75h65.77Zm-66.35,0v19.08H334.75V284.75H400.5ZM632.69,265.1v19.07H566.94V265.1h65.75Zm-66.34,0v19.07H500.6V265.1h65.75Zm-66.33,0v19.07H434.26V265.1H500Zm-66.34,0v19.07H367.92V265.1h65.76Zm-66.35,0v19.07H301.58V265.1h65.75Zm232.19-19.66v19.08H533.77V245.44h65.75Zm-66.33,0v19.08H467.43V245.44h65.76Zm-66.34,0v19.08H401.08V245.44h65.77Zm-66.35,0v19.08H334.75V245.44H400.5Zm165.85-19.65v19.07H500.6V225.79h65.75Zm-66.33,0v19.07H434.26V225.79H500Zm-66.34,0v19.07H367.92V225.79h65.76Zm-66.35,0v19.07H301.58V225.79h65.75Zm165.86-19.66v19.08H467.43V206.13h65.76Zm-66.34,0v19.08H401.08V206.13h65.77Zm-66.35,0v19.08H334.75V206.13H400.5Zm-66.34,0v19.08H268.4V206.13h65.76Zm-66.34,0v19.08H202.06V206.13h65.76ZM500,186.48v19.07H434.26V186.48H500Zm-66.34,0v19.07H367.92V186.48h65.76Zm-66.35,0v19.07H301.58V186.48h65.75Zm-66.34,0v19.07H235.23V186.48H301Zm-66.34,0v19.07H168.9V186.48h65.75Zm232.2-19.66v19.07H401.08V166.82h65.77Zm-66.35,0v19.07H334.75V166.82H400.5Zm-66.34,0v19.07H268.4V166.82h65.76Zm-66.34,0v19.07H202.06V166.82h65.76ZM500,147.16v19.08H434.26V147.16H500Zm-66.34,0v19.08H367.92V147.16h65.76Zm-66.35,0v19.08H301.58V147.16h65.75Zm165.86-19.65v19.07H467.43V127.51h65.76Zm-66.34,0v19.07H401.08V127.51h65.77Zm-66.35,0v19.07H334.75V127.51H400.5Zm-66.34,0v19.07H268.4V127.51h65.76Zm298.53-19.66v19.08H566.94V107.85h65.75Zm-66.34,0v19.08H500.6V107.85h65.75Zm-66.33,0v19.08H434.26V107.85H500Zm-66.34,0v19.08H367.92V107.85h65.76Zm-66.35,0v19.08H301.58V107.85h65.75ZM599.52,88.19v19.08H533.77V88.19h65.75Zm-66.33,0v19.08H467.43V88.19h65.76Zm-66.34,0v19.08H401.08V88.19h65.77ZM632.69,68.54V87.61H566.94V68.54h65.75Zm-66.34,0V87.61H500.6V68.54h65.75Zm-66.33,0V87.61H434.26V68.54H500Zm33.17-19.66V68H467.43V48.88h65.76Zm-66.34,0V68H401.08V48.88h65.77ZM500,29.23V48.3H434.26V29.23H500ZM610.43,9.57H600.1v13l-.58,0v-13H588.1a5.86,5.86,0,0,1,.1-.58h22.13C610.37,9.18,610.4,9.38,610.43,9.57Z"/><path class="cls-3" d="M119.45,293.52H59.08A59.25,59.25,0,0,0,0,352.6H0a59.25,59.25,0,0,0,59.08,59.08H399.92v-394H354a14.78,14.78,0,0,0-14.75,14.74h0A14.79,14.79,0,0,0,354,47.2h14.15a21.44,21.44,0,0,1,21.37,21.37h0a21.43,21.43,0,0,1-21.37,21.36H325.51c-57.55,0-65.67,15-75.75,44.95s-62.42,32.32-62.42,32.32H115.77a32.29,32.29,0,0,0-32.2,32.2h0a32.29,32.29,0,0,0,32.2,32.19h3.68a31.07,31.07,0,0,1,31,31h0A31.06,31.06,0,0,1,119.45,293.52Z"/><path class="cls-4" d="M200.43,411.68h83.39V250.09a8,8,0,0,0-7.95-8H208.38a8,8,0,0,0-7.95,8Z"/><path class="cls-5" d="M163.09,411.68h83.39V286.4a8,8,0,0,0-7.95-7.95H171a8,8,0,0,0-7.95,7.95Z"/><path class="cls-4" d="M309.15,411.68h68.51V310.36a6.55,6.55,0,0,0-6.53-6.53H315.68a6.54,6.54,0,0,0-6.53,6.53Z"/><path class="cls-2" d="M262.3,108.34h52.48v67.39h-64V132C254,122.5,257.28,114.62,262.3,108.34Z"/><path class="cls-6" d="M263.13,107.34h53.15v67.22h-64v-46.8C255.24,119.65,258.42,112.84,263.13,107.34Z"/><path class="cls-7" d="M257.66,115.41v53.74h53.21v-56.4H259.21C258.67,113.61,258.16,114.5,257.66,115.41Z"/><path class="cls-8" d="M257.66,115.41v53.74h53.21l-52.27-55.4C258.28,114.29,258,114.85,257.66,115.41Z"/><path class="cls-9" d="M262.92,118.32v45.26h42.7V118.32Zm8.12,8.61H297.5v28H271Z"/><polygon class="cls-6" points="262.92 118.32 262.92 163.58 305.62 163.58 297.5 154.98 271.04 154.98 271.04 126.93 262.92 118.32"/><rect class="cls-10" x="328.62" y="108.34" width="64.03" height="52.21"/><rect class="cls-11" x="330.13" y="107.34" width="64.03" height="52.21"/><rect class="cls-12" x="335.54" y="112.75" width="53.21" height="41.38"/><polygon class="cls-1" points="335.54 112.75 335.54 154.14 388.74 154.14 335.54 112.75"/><rect class="cls-13" x="401.42" y="316.33" width="2.72" height="91.02" rx="0.99"/><rect class="cls-14" x="397.7" y="313.79" width="10.15" height="11.02" rx="3.71"/><rect class="cls-14" x="399.42" y="404.8" width="8.47" height="5.43" rx="1.98"/><path class="cls-15" d="M391.7,407.51h23.91a3,3,0,0,1,3,3v2.25a3,3,0,0,1-3,3H391.7a3,3,0,0,1-3-3v-2.25A3,3,0,0,1,391.7,407.51Z"/><path class="cls-16" d="M421.83,315.64h0a2.63,2.63,0,0,0-2.62-2.62H386.35a2.63,2.63,0,0,0-2.62,2.62h0a2.63,2.63,0,0,0,2.62,2.62h32.86A2.63,2.63,0,0,0,421.83,315.64Z"/><rect class="cls-13" x="376.73" y="313.08" width="52.13" height="2.95" rx="1.48"/><path class="cls-17" d="M363.72,307.44h79.43a3.57,3.57,0,0,1,3.56,3.56h0a3.57,3.57,0,0,1-3.56,3.56H363.72a3.58,3.58,0,0,1-3.57-3.56h0A3.58,3.58,0,0,1,363.72,307.44Z"/><path class="cls-18" d="M399.3,307.44h43.85a3.57,3.57,0,0,1,3.56,3.56h0a3.57,3.57,0,0,1-3.56,3.56H399.3a3.57,3.57,0,0,1-3.56-3.56h0A3.57,3.57,0,0,1,399.3,307.44Z"/><path class="cls-19" d="M405.49,386.14l-3.38,2.59,2,21.37s.07,1.58.8,1.58h1.18s.56-.15.5-1.1S406,389.4,406,389.4Z"/><path class="cls-19" d="M481.44,386.14l-3.38,2.59,2,21.37s.08,1.58.81,1.58H482s.56-.15.5-1.1S482,389.4,482,389.4Z"/><path class="cls-19" d="M406.81,378.92s-4.43,2.47-4.81,3.38-1.34,4.95-.29,6.43,4.14,2.61,4.86,3.52S411,408.87,411,408.87a3.71,3.71,0,0,0,3.81,2.81h19.38a1.31,1.31,0,0,0,.91-1.45,6,6,0,0,0-1.08-2.48,3.6,3.6,0,0,0-3.4-1.64l-10.12-2.69-5.86-14.67-3.76-10.43S408,377.32,406.81,378.92Z"/><path class="cls-20" d="M433.57,354.49c-1.85,2.9-17.62,23.95-17,26.17.84,3.23,3.55,12.39,4.47,15.54,2.28,7.81,5.29,7.39,6.67,7.39a3.06,3.06,0,0,1,2.95,2.52H419.91a4.28,4.28,0,0,1-4.2-3.24c-.66-2-4.95-19.86-5.38-21.62a3.37,3.37,0,0,0-3.52-2.33l11.05-28.1Z"/><path class="cls-19" d="M482.82,378.92s-4.43,2.47-4.81,3.38-1.34,4.95-.29,6.43,4.14,2.61,4.86,3.52S487,408.87,487,408.87a3.71,3.71,0,0,0,3.81,2.81H510.2a1.3,1.3,0,0,0,.9-1.45,5.72,5.72,0,0,0-1.08-2.48,3.6,3.6,0,0,0-3.39-1.64l-10.12-2.69-5.86-14.67-3.76-10.43S484,377.32,482.82,378.92Z"/><path class="cls-20" d="M482.91,354.87s11.81,33.52,14.1,41.33,5.28,7.39,6.67,7.39a3.07,3.07,0,0,1,2.95,2.52H495.91a4.27,4.27,0,0,1-4.19-3.24c-.67-2-5-19.86-5.38-21.62a3.37,3.37,0,0,0-3.52-2.33l-9.15-18.2Z"/><path class="cls-16" d="M389.6,240.07l-11.15,7.58s-3.31-.47-5.83,3.74c-4.94,8.24-10.66,25.26-9.28,34.71,2.1,14.29,8.19,21.34,27.05,21.34h39.68c1.24,0-24.9,60.24-25.67,62.91s34.67,13.33,50.48,7.43a3.42,3.42,0,0,0,1.24-2.58,38.19,38.19,0,0,0,.1-4.33S483.08,363.16,487,357a3.76,3.76,0,0,0,0-2.31c-.31-1-11.07-37.81-22.3-59.64-13.3-25.84-20.65-22.89-46.47-22.51,0,0-.55-7.67-1.6-11.19C416.87,257.12,389.6,240.07,389.6,240.07Z"/><path class="cls-21" d="M456.22,370.87s8.68-2.49,16.89-5.78c-2.64-2.47-6.94-6.77-7.47-9-.76-3.24-5.52-40.12-6-40.24s-.53.43-.53.43Z"/><path class="cls-19" d="M422,185.49l7.05,7.12c4.54,6.84,27.05,52.89,53.09,61.81,3.59,1.23-11,2.58-10.69,3.53,0,.05-13.41-6.77-22.52-13.43-3.91-2.86-21.34-19.24-21.34-19.24S415.38,193.11,422,185.49Z"/><path class="cls-16" d="M401,179.9c4.49.58,9.33,1.49,15,2.2,6.16,1.8,8.38,5.75,10.3,10.75,1.58,4.14,6.24,23.17,6.08,24.88.07,4-2.7,9.78-8.42,16.15-2.39,8.58-6,22.77-6.5,25.5-2.31,12.84-49.42-1.25-47-6.95,12.11-28.45,3.49-44.67,5.25-55.91.08-.54.17-1.07.25-1.59l5.62-3.63L379.63,188s6.42-5.39,19.46-7.76C399.78,180.14,400.4,180,401,179.9Z"/><path class="cls-22" d="M401.56,161.75l-.25,4.75-1.06,11.16c-.12,1.27-2.43,2.53-5.85,2.92-1.62.19.08,2.94,3.22,5.94,6.33,6,10.79,2.42,14.2,2.26,7.44-.33,9.19-6.72,5.74-7.14a4.71,4.71,0,0,1-3.31-1.91c-1.45-1.92-.63-9.78,1.19-11.69S401.56,161.75,401.56,161.75Z"/><path class="cls-7" d="M411.82,188.78c-3.85,22.62-30-12.24-14.95-8.68C396.87,180.1,399.78,187.55,411.82,188.78Z"/><path class="cls-7" d="M417.59,181.66s.72,5.49-5.77,7.12c0,0,2.4,7.22,6.77,6.22S422.9,180.59,417.59,181.66Z"/><path class="cls-23" d="M425.48,149.6a.48.48,0,1,0,.44-.86s-2.88-1.53-5.45,0a.48.48,0,0,0-.17.66.5.5,0,0,0,.67.17A5,5,0,0,1,425.48,149.6Z"/><path class="cls-21" d="M397.41,114.48a13.25,13.25,0,1,1-14.8,11.5A13.25,13.25,0,0,1,397.41,114.48Z"/><path class="cls-24" d="M397.15,119.42a5.29,5.29,0,1,1-5.91,4.59A5.28,5.28,0,0,1,397.15,119.42Z"/><path class="cls-21" d="M392.88,140a.32.32,0,0,1,.34.31.33.33,0,0,1-.3.34s-7.71.58-11.9-10.62a.32.32,0,0,1,.19-.41.32.32,0,0,1,.42.19C385.64,140.51,392.86,140,392.88,140Z"/><path class="cls-25" d="M429.14,153.39a5.23,5.23,0,1,0,4.43,5.93A5.24,5.24,0,0,0,429.14,153.39Z"/><path class="cls-21" d="M434.78,150.22s-3.69,16-7.06,15.91c1.61-9.31-.72-10.18-2.17-12.74Z"/><path class="cls-26" d="M393,145.75c-4.94,14.33-5,21.2,1.73,25.38s18.54,2.72,18.54,2.72Z"/><path class="cls-21" d="M421.33,117.39a29.64,29.64,0,0,0-12.9-.15c-3.16.63-6.92,5.37-6.92,5.37s-2.28-2.61-4.82-1.72-12.41,15-12.88,18.71,6.9,13,6.9,13a1.35,1.35,0,0,1,1.59,1.54L392,156.8c.91.11,1.23-1.2,1.38-2.39s.31-2.48.31-2.48a15.14,15.14,0,0,0,3-6.72l6.1.77a1.34,1.34,0,0,0,1.22-.93c.17-.51.94-3.93,1.15-4.75s.54-1.19.68-1-.11,3.12-.07,5,1.26,2.15,1.3,2.16h0l6.85.86Z"/><path class="cls-25" d="M392.86,148.21l-.39,0h0a5.23,5.23,0,1,0,4.2,1.58c-.06,1.55-.54,3.42-2.52,3.37l.43-3A1.79,1.79,0,0,0,392.86,148.21Z"/><path class="cls-20" d="M416.36,124.8h0A18,18,0,0,0,396.06,140l-2.33,16.13a18,18,0,0,0,15.18,20.3h0a18,18,0,0,0,20.3-15.17l2.33-16.13A18,18,0,0,0,416.36,124.8Z"/><path class="cls-22" d="M416.36,124.8h0A18,18,0,0,0,396.06,140l-2.33,16.13a18,18,0,0,0,15.18,20.3h0c.36.06.72.1,1.08.13-11.36-2.12-11.71-13.11-11.18-20.12s4.95-13.73,7.37-16.15,7-.2,9,3.46S422,151,422,151s2.61.49,2.61.49l3-7.17s-3.38-11.16-5.77-17.81A17.89,17.89,0,0,0,416.36,124.8Z"/><path class="cls-21" d="M400.3,143s-3.69,16-7.06,15.9c1.62-9.3-.72-10.17-2.16-12.73Z"/><path class="cls-21" d="M412.22,129.24l-1.65,2.55s-3.57-2.06-5.35,3C403.67,139.14,400,149,392,148.05c-1.21-.14-2.06.49-3.49-.26,0,0,1.82-17.23,8.13-21.44S412.22,129.24,412.22,129.24Z"/><path class="cls-21" d="M404.66,130.49h.1a.46.46,0,0,0,.41.13c4.49-.67,6.62,3.73,9.12,8.89s5.41,11.18,11.45,13.86a12.62,12.62,0,0,0,1.56,1c10,5.42,20.52-6.94,14.58-20.3-6.37-14.33-28.57-24.94-37.7-9.68,0,0-1.87,3.3.48,6.09Zm6.84,2.09c5,3.87,7,12.28,11.33,17.85-3.61-3-5.75-7.37-7.67-11.34A37.56,37.56,0,0,0,411.5,132.58Z"/><path class="cls-19" d="M378.07,189.73c-13.43,17.68-24.66,37.88-26,39-1.59,1.3-2.47,1.41-4.73.34s-26-20.3-26.81-20.44-5,4.15-5.26,5.16,25.25,27.62,29.38,30,11.24,1.45,15.06-1.8c2.77-2.35,14.09-14.84,20.12-21.54,6.39-7.06,9.62-20.94,9.72-21.42.78-5.4.34-10.54-3.36-12.49C383.48,185.72,380.49,186.55,378.07,189.73Z"/><path class="cls-24" d="M330.4,374.85s-4,2.77-4.2,3.61-.51,4.48.77,5.61,4.51,1.67,5.36,2.35,7.08,13.75,7.08,13.75a3.78,3.78,0,0,0,4.22,1.89l19.12-2.77a1.12,1.12,0,0,0,.66-1.38,5.14,5.14,0,0,0-1.47-2,4,4,0,0,0-3.62-.94l-10.42-.88-8.17-11.86-5.41-8.49S331.29,373.3,330.4,374.85Z"/><path class="cls-20" d="M328.6,355.29s15.09,26.06,18.62,32.49,6.41,5.64,7.78,5.44a3.14,3.14,0,0,1,3.32,1.76l-10.57,1.53a4.42,4.42,0,0,1-4.66-2.2c-1-1.64-8.12-16.48-8.83-17.94s-2.86-1.83-3.86-1.52l-11.92-14.1Z"/><path class="cls-16" d="M270.58,389.27l-3.38,2.29,2,18.91s.08,1.4.8,1.4h1.18s.56-.13.51-1-.57-18.74-.57-18.74Z"/><path class="cls-24" d="M271.89,382.88s-4.43,2.19-4.81,3-1.33,4.38-.28,5.69,4.14,2.32,4.85,3.12,4.43,14.71,4.43,14.71.57,2.48,3.81,2.48h19.39a1.18,1.18,0,0,0,.9-1.28,4.94,4.94,0,0,0-1.08-2.2,3.8,3.8,0,0,0-3.4-1.45l-10.12-2.38-5.85-13L276,382.35S273.06,381.46,271.89,382.88Z"/><path class="cls-20" d="M292.11,369.05c-3.5,4.44-11,13.72-10.5,15.37.84,2.86,3.55,11,4.47,13.76,2.29,6.91,5.29,6.53,6.67,6.53a3,3,0,0,1,2.95,2.23H285a4.21,4.21,0,0,1-4.19-2.86c-.67-1.77-4.95-17.58-5.38-19.14s-2.48-2.23-3.53-2.06L279.57,367C281.5,366.82,293,367.88,292.11,369.05Z"/><path class="cls-21" d="M289.58,372.55s31.62-50.93,33.64-61.37c1.94-10,3.8-16.62-57-40.19-2.49-1-4.47-3.13-7.36-3.53-41.85,7.2-60.92,25-2.75,30.56,47.07,4.51,40.35,20.55,40.35,20.55s-12.39,34.06-18.33,49.58C277.6,369.61,286.44,376.44,289.58,372.55Z"/><rect class="cls-13" x="256.29" y="314.96" width="2.72" height="91.02" rx="0.99"/><rect class="cls-14" x="252.57" y="312.42" width="10.15" height="11.02" rx="3.71"/><rect class="cls-15" x="253.41" y="403.55" width="8.47" height="5.43" rx="1.98"/><rect class="cls-15" x="242.64" y="406.27" width="30" height="8.34" rx="3.05"/><path class="cls-16" d="M276.69,314.27h0a2.63,2.63,0,0,0-2.62-2.62H241.21a2.63,2.63,0,0,0-2.62,2.62h0a2.63,2.63,0,0,0,2.62,2.62h32.86A2.63,2.63,0,0,0,276.69,314.27Z"/><path class="cls-21" d="M283.73,313.19h0a1.48,1.48,0,0,0-1.47-1.48H233.08a1.49,1.49,0,0,0-1.48,1.48h0a1.49,1.49,0,0,0,1.48,1.48h49.18A1.48,1.48,0,0,0,283.73,313.19Z"/><rect class="cls-27" x="215.02" y="306.06" width="86.56" height="7.12" rx="3.56"/><rect class="cls-28" x="250.6" y="306.06" width="50.98" height="7.12" rx="3.56"/><path class="cls-16" d="M215.94,108.88a16.59,16.59,0,1,1-16.59,16.59A16.59,16.59,0,0,1,215.94,108.88Z"/><path class="cls-24" d="M215.64,114.81a6.62,6.62,0,1,1-6.62,6.62A6.62,6.62,0,0,1,215.64,114.81Z"/><path class="cls-19" d="M274.58,230.31c.27.45,2.26.56,2.79.35s17.57-39.11,17.77-39.38a.67.67,0,0,1,.61-.2s3.64,4.23,6.37,4.54c0,0,.32.66.19.85s-9.43,38.37-17.17,49.78c-3.7,5.46-11.29,7.55-15.79,2.95-7.72-7.91-16.4-23.43-21.55-37.73-2-5.64-3.37-20.33,3.9-26.62,1.93-1.66,4.92,2.78,6.18,5.69S274.58,230.31,274.58,230.31Z"/><path class="cls-16" d="M256.75,262.38c2.16,1,5.87,9.34,8.58,10.33,10.65,3.94,24.25,8.11,30.69,12.47,6.87,4.66,9.71,11.47,11.81,16.89S327.05,344.5,335,363c1.09,2.52-10.26,7.37-11.8,5.1-7.56-11.11-32.36-47.59-42.32-62.1l-41.8.06s-16.2-2.6-25-14c-9.47-12.28-1.66-42.24,2.52-42.64,7.91-.76,23.81-4.6,36.5,1.6C260.79,254.78,253.25,262.41,256.75,262.38Z"/><path class="cls-16" d="M257.46,189.58c2.83,7.66,7.31,22.26,7.64,25.93.44,4.79-1.62,12.26-3.18,16.67-2.92,8.26.39,20.64-.3,29.26A12.31,12.31,0,0,1,260,267.1s-16.48,9.56-47.7-2a13,13,0,0,1-1.84-8.94c4.18-31.52,1.52-35.92-5.44-67.94,8.11-8.5,28.65-9.87,40.58-7.32,0,0,7.43,2.89,8.77,4s3,4.75,3,4.75Z"/><path class="cls-22" d="M227.17,162.37l.06,4.36S227,175.66,227,177c0,1.17-2.07,2.46-5.18,3-1.48.27.26,2.68,3.32,5.24,6.16,5.13,10,1.54,13.13,1.19,6.8-.77,8-6.72,4.82-6.89a4.32,4.32,0,0,1-3.15-1.55c-1.44-1.67-1.17-8.92.37-10.77S227.17,162.37,227.17,162.37Z"/><path class="cls-7" d="M238.22,186.49c-2.12,20.95-28.24-9.36-14.21-7C224,179.46,227.12,186.1,238.22,186.49Z"/><path class="cls-7" d="M243.07,179.61s1,5-4.85,6.88c0,0,2.65,6.46,6.59,5.27S247.87,178.31,243.07,179.61Z"/><path class="cls-29" d="M253.9,146.68l.42.07h0a5.75,5.75,0,1,1-4.79,1.16c-.15,1.69.12,3.79,2.28,4l-.06-3.31A2,2,0,0,1,253.9,146.68Z"/><path class="cls-29" d="M214.65,146.68l-.42.07h0a5.74,5.74,0,1,0,6.92,5.73,5.7,5.7,0,0,0-2.13-4.57c.15,1.69-.12,3.79-2.28,4l.06-3.31A2,2,0,0,0,214.65,146.68Z"/><rect class="cls-30" x="215.71" y="118.01" width="39.3" height="57.18" rx="19.65"/><path class="cls-16" d="M215.71,157.92V149.3a2.76,2.76,0,0,0-2.92-2c-7.73-8.89-6.71-23,1.54-30.33s26-7.79,29.09-6.76,6.29,6.29,6.29,6.29,2.62-2.35,5.06-1.13,10.61,16.61,10.61,20.46c0,5-8.49,8.51-10.37,22.13-.93,0-1.09-7.21-1.09-8.43V147a15.44,15.44,0,0,1-2.19-7.14H245.5a1.32,1.32,0,0,1-1.11-1.08c-.12-.53-.45-4.08-.57-4.92s-.39-1.27-.56-1.05-.28,3.16-.56,5-1.54,2-1.58,2h0l-17.87.2C224.38,146.21,216,157.92,215.71,157.92Z"/><path class="cls-7" d="M291.06,172.39h-2.28a.64.64,0,0,0-.43.17h-.05l-17.1-1.31a1.6,1.6,0,0,0-1.75,1.62V196.1A1.94,1.94,0,0,0,271.2,198l17.1,1.31a2.23,2.23,0,0,0,.37,0h2.39a.63.63,0,0,0,.33-.09l9.75-1.64a1.29,1.29,0,0,0,1-1.23V171.7a.86.86,0,0,0-1-.88l-9.78,1.65A.61.61,0,0,0,291.06,172.39Z"/><path class="cls-21" d="M303,171.32l-10.9,1.83a1.41,1.41,0,0,0-1.11,1.33v26.64a.93.93,0,0,0,1.11,1l10.9-1.84a1.39,1.39,0,0,0,1.11-1.33V172.27A.92.92,0,0,0,303,171.32Z"/><path class="cls-16" d="M270.62,171.78l18.51,1.42a2.08,2.08,0,0,1,1.88,2v25.13a1.73,1.73,0,0,1-1.88,1.75l-18.51-1.42a2.08,2.08,0,0,1-1.88-2V173.53A1.73,1.73,0,0,1,270.62,171.78Z"/><rect class="cls-31" x="288.97" y="173.02" width="3.82" height="29.1" rx="0.67"/><path class="cls-16" d="M211.8,140.83a.3.3,0,0,1,.35.26.31.31,0,0,1-.27.36s-7.47,1.21-12.48-9.38a.31.31,0,0,1,.15-.42.32.32,0,0,1,.42.15C204.77,142,211.78,140.83,211.8,140.83Z"/><path class="cls-16" d="M249.44,125.18a.32.32,0,0,0,.1.44.31.31,0,0,0,.43-.1s4.18-6.33-3.42-15.24a.32.32,0,0,0-.44,0,.33.33,0,0,0,0,.45C253.36,119.24,249.45,125.16,249.44,125.18Z"/><path class="cls-32" d="M308,191.63c-.36,3-3.91,4.83-3.92,4.93s.07-7.32.07-7.32Z"/><path class="cls-32" d="M304.89,177.25c1.29-.46,2.4-.55,2,.92a21.49,21.49,0,0,0,.09,5.16l-2.85-.27S303.51,177.81,304.89,177.25Z"/><path class="cls-20" d="M308.12,182.3c.55.85.37,10-.46,10.7s-6.13,1.06-6.18,0,2.12-2.08,2.12-2.08-3.34.4-4-1,1.13-2,3.48-2.12c.94,0-2-.74-3.16-1.21a1.86,1.86,0,0,1-.81-2c.22-1.27,3.67-.4,4.89-.49a26,26,0,0,1-4.44-1.14c-1-.48-1.82-2.24.81-2.27a41.62,41.62,0,0,1,5,.41A2.54,2.54,0,0,1,308.12,182.3Z"/><path class="cls-20" d="M265.67,196.18a7.88,7.88,0,0,0,1.68-5.36,18.13,18.13,0,0,1-.06-6.54c.66-3,1.69-2.09,2.07-.35a26.08,26.08,0,0,0,1.33,3.93s4.23-4,5.83-5.85,3.42-1.78,3.4-.38-.55,1.42,0,1.6a1.13,1.13,0,0,1,.9,1.44l-.15,1s1.18.08,1.3,1a4.35,4.35,0,0,1-.61,2.14s1.38.6,1.15,1.26a25,25,0,0,1-5.18,5.91c-2.09,1.59-5.55,3.58-6.52,5S265.67,196.18,265.67,196.18Z"/><path class="cls-32" d="M265.67,196.18a7.92,7.92,0,0,0,1.67-4.34c1.47,3.18,4.73,4.35,8.08,3.29,1.16-.37,2.74-.93,4.36-1.52a19.32,19.32,0,0,1-2.45,2.33c-2.09,1.59-5.55,3.58-6.52,5S265.67,196.18,265.67,196.18Z"/><path class="cls-19" d="M234.17,233.68c.54-.22,31.72-38.63,31.91-38.9a.73.73,0,0,1,.62-.2s4.52,4.62,7.25,4.93c0,0,.31.66.19.85s-25.06,36.85-32.8,48.25c-3.71,5.46-10.33,7.24-14.83,2.64-7.72-7.92-19.12-23.44-24.27-37.73-2-5.65-3.37-20.34,3.9-26.62,1.93-1.67,4.92,2.78,6.18,5.68C213.89,196.21,233.94,233.77,234.17,233.68Z"/><path class="cls-32" d="M223,144c9.55-.74,23.95.18,29.76.62a13.14,13.14,0,0,1-1-4.79H245.5a1.32,1.32,0,0,1-1.11-1.08c-.12-.53-.45-4.08-.57-4.92s-.39-1.27-.56-1.05-.28,3.16-.56,5-1.54,2-1.58,2L224,140h-.7c0,.11,0,.22.05.33A10.38,10.38,0,0,1,223,144Z"/><path class="cls-16" d="M331.12,392.16l-3.38,2.59,2,21.37s.07,1.58.8,1.58h1.18s.56-.15.5-1.09-.56-21.19-.56-21.19Z"/><path class="cls-33" d="M454,370c-1.91,2.59-2.53,3.41-2.53,3.41,9.18,11.44,15.21,10.32,20.66,10.49,2.38.06.41,2.15.41,2.15l8.6,2.08,2.49-4.14s-14.07-9.72-29.63-14Z"/><path class="cls-34" d="M479.54,364.61c-3.3,4.42-4,5.34-4,5.34s-4,.41-9.44.67c-.44,0-4.65-1.38-6.3-1.68-3.24-.58-9.57-.28-4.16,5.69,3.92,4.35,8.49,6.86,13.94,7.2a36.66,36.66,0,0,1,9.1,1.61l4.65,1.44s5.22-9,5.39-12.29-9.21-8-9.21-8Z"/><path class="cls-33" d="M512.11,407.31v4.26c14.2,3.71,18.36-.79,22.83-3.92,1.95-1.35,1.62,1.5,1.62,1.5l8.14-3.45-.45-4.81s-17.1.56-32.14,6.42Z"/><path class="cls-34" d="M529.44,387.8v6.67s-2.94,2.67-7.18,6.14c-.33.28-4.57,1.67-6.07,2.42-2.94,1.44-7.84,5.47.06,7,5.73,1.14,10.9.45,15.49-2.53a37.16,37.16,0,0,1,8.26-4.12l4.59-1.61s-1.14-10.34-3-13.09-12.17-.92-12.17-.92Z"/><path class="cls-25" d="M552.64,125.72a5.82,5.82,0,0,1,5.17,6.16,5.37,5.37,0,0,1-5.89,5.07,5.81,5.81,0,0,1-5.17-6.15A5.37,5.37,0,0,1,552.64,125.72Z"/><path class="cls-26" d="M549.64,119.2c-2.24,8.39,1.17,14.34,3.12,17.85s3.41-18,3.41-18Z"/><path class="cls-35" d="M546.43,163.94a18.33,18.33,0,0,0-6.71,6.27c-1.64,2.53-21,50.17-22.24,53.27s-.94,10.62,2.45,15c1.38,1.76,5.46,6.82,9.81,12.21,3.86,4.78,11,4.45,16.59,4.81-3.8-5.69-15.64-23.38-16.28-24.45-.76-1.28-1.16-2.54,0-4.92s17.22-27.22,17.22-27.22S554.6,171.85,546.43,163.94Z"/><path class="cls-36" d="M549.93,256.14h-7.31a3.74,3.74,0,0,1-3.75-3.88h0a4,4,0,0,1,4-3.87h7.31a3.74,3.74,0,0,1,3.75,3.87h0A4,4,0,0,1,549.93,256.14Z"/><rect class="cls-37" x="600.09" y="280.44" width="6.58" height="10.71"/><path class="cls-18" d="M548.55,192.69v85.52a5.82,5.82,0,0,0,5.8,5.8h60.24a5.82,5.82,0,0,0,5.8-5.8V186.74a36,36,0,0,0-35.92-35.91h0a36,36,0,0,0-35.92,35.91Z"/><path class="cls-17" d="M543.65,192.69v85.52a5.82,5.82,0,0,0,5.8,5.8h60.23a5.82,5.82,0,0,0,5.8-5.8V186.74a36,36,0,0,0-35.92-35.91h0a36,36,0,0,0-35.91,35.91Z"/><rect class="cls-13" x="559.72" y="298.75" width="3.2" height="107.32" rx="1.17"/><rect class="cls-14" x="555.34" y="295.75" width="11.97" height="12.99" rx="4.37"/><rect class="cls-15" x="556.36" y="403.05" width="9.99" height="6.4" rx="2.34"/><rect class="cls-15" x="544.67" y="406.25" width="35.38" height="9.83" rx="3.59"/><path class="cls-16" d="M583.78,297.93h0a3.1,3.1,0,0,0-3.09-3.09H542a3.1,3.1,0,0,0-3.09,3.09h0A3.1,3.1,0,0,0,542,301h38.74A3.1,3.1,0,0,0,583.78,297.93Z"/><path class="cls-21" d="M592.08,296.66h0a1.74,1.74,0,0,0-1.74-1.74h-58a1.75,1.75,0,0,0-1.75,1.74h0a1.76,1.76,0,0,0,1.75,1.74h58A1.75,1.75,0,0,0,592.08,296.66Z"/><path class="cls-17" d="M515.27,288.26h93.66a4.21,4.21,0,0,1,4.2,4.2h0a4.21,4.21,0,0,1-4.2,4.2H515.27a4.21,4.21,0,0,1-4.2-4.2h0A4.21,4.21,0,0,1,515.27,288.26Z"/><path class="cls-18" d="M557.22,288.26h51.71a4.21,4.21,0,0,1,4.2,4.2h0a4.21,4.21,0,0,1-4.2,4.2H557.22a4.21,4.21,0,0,1-4.2-4.2h0A4.21,4.21,0,0,1,557.22,288.26Z"/><path class="cls-21" d="M528.29,389.67s-27.95-92-30.22-102.13c-2.18-9.76-16.27-23.75,43.7-33.41,2.52-.4,4.19-3,7-3.43,0,0,49.08,2.39,54.73,4.58s-6,20.78-51.11,25.17-24.42,20-24.42,20,12.39,82.73,14,87.08S527.54,396.17,528.29,389.67Z"/><path class="cls-16" d="M550.62,245.76c-1.17.54-2.76,3.46-4.39,6-3.54,5.59-18.43,10.74-26.16,16.16-6.46,4.53-9,11.16-10.81,16.44-2.42,6.94-31.14,79.4-32.84,82.44s.95,7.17,9.2,8.67c2.42.44,4.75-5.75,4.75-5.75s34.11-64.77,44.92-81.53l42,.06c34.53.05,22.55-52.94,14.48-53.73-7.63-.73-26-5.91-38,.14C546.5,238.35,554,245.79,550.62,245.76Z"/><path class="cls-22" d="M575.77,140.15l.08,4.47s.62,9.51.69,10.54.56,1.38,1.83,2.2c1.76,2.63-2,14.08-5.15,14.58s-18-.45-19.07-1.24c-.76-.56,6.17-10.59,5.64-12.21a3.9,3.9,0,0,0,1.67-.81c3-2.73,2.11-10.1-.32-12.67C559.33,143.09,575.77,140.15,575.77,140.15Z"/><path class="cls-38" d="M550.67,175c2.58-1.57,4.19-.34,7.29,2.47s5.83,2.5,7.48,3.1,3.32,27-6.92,31.2c-3.79,1.55-6.3,0-8-3.09C547.45,203.1,544,179.1,550.67,175Z"/><path class="cls-39" d="M601.83,246.19c-1.15,2.85-5.32,5.21-10.35,7-7.67-3-20.38,1.6-30.08,1.13-11-.53-15.62-3.08-15.62-3.08l-.69.51a3.14,3.14,0,0,1-.8-.78h0c-1.32-1.95-.8-4.85-.39-7.44.73-4.65,4.68-1.4,2.3-23.37S536.84,160.69,560,157.9c0,0-.22.53-.54,1.52l1,0s-1.87,6.69,2.57,8.87,9.1-.93,11.09-3.49a1.23,1.23,0,0,1,1-.53c1.39-1.89,2.92-3.8,4.62-5.74,5,.77,13,4.45,13,4.45,4,1.76,8.43,5.46,9.34,9.47,1.29,5.69-3.72,25-7.2,37.43C589,230.74,605.16,237.86,601.83,246.19Z"/><path class="cls-40" d="M561.7,175.39s-9.3,41.05-10.6,49.22a6.37,6.37,0,0,0,1,3.78c1.21,2.06,5.1,8.91,5.71,9.71s1,.21,1.71-.48,5.27-5.68,6-6.64c.43-.53.77-1.24.67-3.08-.61-11.41-1.89-21.84-1.71-34.18.09-6.67.37-13,.86-17.34l-1-3.6S561.72,174.07,561.7,175.39Z"/><path class="cls-41" d="M557.09,196.06c-2.55,11.51-5.32,24.36-6,28.55a6.37,6.37,0,0,0,1,3.78l1.64,2.84,2.9-26.34S556.82,201,557.09,196.06Z"/><path class="cls-40" d="M560,171l1.66,4.35a3.42,3.42,0,0,1,3.63,1l3.22-3.32L567,170.11a7.89,7.89,0,0,0-4.09-.9A3.41,3.41,0,0,0,560,171Z"/><path class="cls-7" d="M580.15,157.45a10.64,10.64,0,0,1,1.88,1.46,2.37,2.37,0,0,1,.06,1.92c-.41,1.18-11,15.14-11,15.14s-.35.5-.86-.05-5-6.91-5-6.91l13.42-11.95C579.09,156.6,579.76,157.2,580.15,157.45Z"/><path class="cls-7" d="M561.64,157.51l0,0a4.3,4.3,0,0,0-3.51.73c-1.91,1.91.12,13.54.76,15.52a.08.08,0,0,1,0,0,.86.86,0,0,0,1.1.17c.62-.39,3.81-5.3,3.81-5.3C563.21,167.67,559.18,162.75,561.64,157.51Z"/><path class="cls-35" d="M581.13,158.12s-14.49,33.53-15.7,49.3,12.7,48.63,13.6,50.44,17.36,9.57,24.88,9.62c0,0,1.19,0,1.47-.39s1.36-1.64,1.74-2.15a3,3,0,0,0,.28-2.68c-.38-1.27-9.23-41.2-10.35-46.4s4.91-32.71,5.79-37.81S604.88,163.61,581.13,158.12Z"/><path class="cls-42" d="M577.64,166.6c-4.37,11-11.38,30.05-12.21,40.82a26.22,26.22,0,0,0-.06,3,28,28,0,0,1,6.35-10.48c2.76-2.92,6.81-6.74,9.2-8.81,3.67-3.18,8.29-6.26,7.54-9.77s-3.39-14-3.39-14Z"/><path class="cls-35" d="M558.08,158.22s-1.78,41-2.46,45.9-6.39,43.67-6.89,46.58-8.5,3.69-8.5,3.69,3.3-38.37,3.32-39.43-.8-29.58-.92-33.08,3.48-16.3,4.09-17.68S551.64,159.5,558.08,158.22Z"/><path class="cls-42" d="M557.58,169.21c-.57,12.52-1.5,31.67-2,34.91-.12.92-.43,3-.85,5.89,0,0-5.33-32.39-5-33.56s4.91-10.3,4.91-10.3Z"/><path class="cls-43" d="M558.08,158.22s-.29,6.7-.68,15c-2.34-3-5.29-6.92-5-7.44.5-.85,4-7.15,4-7.17C557,158.47,557.51,158.34,558.08,158.22Z"/><path class="cls-43" d="M586.09,159.43s2.73,10.38,2.81,11.18c.06.62-11.39,6.86-16.34,9.53,4.16-11.8,8.57-22,8.57-22C582.92,158.54,584.57,159,586.09,159.43Z"/><path class="cls-35" d="M596.54,163.94a18.32,18.32,0,0,1,6.72,6.27c1.64,2.53,21,50.17,22.24,53.27s.94,10.62-2.46,15c-1.37,1.76-5.45,6.82-9.8,12.21-3.86,4.78-11,4.45-16.59,4.81,3.8-5.69,15.64-23.38,16.27-24.45.76-1.28,1.17-2.54,0-4.92s-17.22-27.22-17.22-27.22S588.38,171.85,596.54,163.94Z"/><path class="cls-16" d="M552,160.2a41,41,0,0,0-9.3,20.69.3.3,0,0,1-.08.16,66.11,66.11,0,0,1,1.84-9.18,39.85,39.85,0,0,1,6.16-11C551.09,160.67,551.55,160.44,552,160.2Z"/><path class="cls-16" d="M597.74,194.12a.28.28,0,0,1-.28.3.3.3,0,0,1-.31-.29c0-.07-1.13-20.68,3.53-27.1l.37.38C596.61,173.49,597.74,194.05,597.74,194.12Z"/><path class="cls-36" d="M593.05,256.14h7.31a3.74,3.74,0,0,0,3.75-3.88h0a4,4,0,0,0-4-3.87H592.8a3.73,3.73,0,0,0-3.75,3.87h0A4,4,0,0,0,593.05,256.14Z"/><path class="cls-25" d="M590.52,129.41a5.82,5.82,0,0,1,5.17,6.16,5.38,5.38,0,0,1-5.89,5.08,5.83,5.83,0,0,1-5.17-6.16A5.38,5.38,0,0,1,590.52,129.41Z"/><path class="cls-20" d="M572.15,99h0a20,20,0,0,1,17.7,21.09l-1.13,17.49A18.47,18.47,0,0,1,568.54,155h0a20,20,0,0,1-17.7-21.1l.56-8.73.57-8.75A18.46,18.46,0,0,1,572.15,99Z"/><path class="cls-22" d="M579.78,101.47l0,0a20.16,20.16,0,0,1,10,18.63l-1.13,17.49A18.47,18.47,0,0,1,568.54,155h0a19.08,19.08,0,0,1-6.72-2c19.4,4.2,21.4-10.64,22.09-21.35,1-15.82-14.88-5-32.31-8-.61-.1.83-5.31.25-5.39l.12-1.92a19.51,19.51,0,0,1,1-4.93c7.79-4,18.56-9.25,23.5-9.78l3.17-.33.12.06C579.63,101.46,579.61,101.47,579.78,101.47Z"/><path class="cls-21" d="M585.63,121s-.35,5.43-.58,8.93-.25,4.31,1.39,5.76c0,0,0,4.65,1.86,5.63,0,0,1.45-8.54,3.53-12.21l.22-14.65a11.14,11.14,0,0,1-6.51,4.53A9.46,9.46,0,0,1,585.63,121Z"/><path class="cls-21" d="M551.46,124.25s-4.12-3.54-5.25-7.37c-3-10,11.47-31.31,30.83-18.48,5.9,3.9,11-1.4,11.93,8.91,0,0,1.41-1.34,2.54-.89s-.57,2.87-.57,2.87,3.77,3,4.25,5.2-4.4,12.38-4.13,15.27L589,121l-10-9.53-18.66-1.93-8.5,8.6Z"/><path class="cls-21" d="M587.38,125.46s-5.26-1.6-5-6.58c-1.78,2.64-6,2.84-3.62-1.3a38.11,38.11,0,0,1-27.62,4.34s-1.38-16,1.69-17.35,23.09,2.37,25.32,3.4S592,115.72,592,115.72Z"/><path class="cls-44" d="M600.45,261.31a4.48,4.48,0,1,0-9,.59c.65,9.5,1.69,20.05,3.21,31.75H513.3c1.62-11.64,2.9-22.13,3.91-31.57a4.48,4.48,0,1,0-8.91-.95c-2,18.65-5.06,41.39-9.62,69-3.88,23.52-8.84,50.54-15.14,81.54h9.13c6.18-30.46,11-57,14.86-80.1q2.55-15.48,4.5-28.94H596q1.95,13.53,4.78,29c4.24,23.13,10.07,49.65,17.93,80h9.25c-8.1-31.09-14.07-58.14-18.38-81.63q-3.18-17.35-5.21-32.2c0-.22-.05-.43-.09-.65C602.38,283.82,601.17,271.9,600.45,261.31Z"/><path class="cls-7" d="M311,261.31a4.48,4.48,0,0,0-8.95.59c.65,9.5,1.68,20.05,3.21,31.75H223.88c1.62-11.64,2.9-22.13,3.91-31.57a4.48,4.48,0,0,0-8.91-.95c-2,18.65-5.06,41.39-9.62,69-3.88,23.52-8.84,50.54-15.14,81.54h9.13c6.18-30.46,11-57,14.85-80.1q2.57-15.48,4.51-28.94h83.92q2,13.53,4.78,29c4.24,23.13,10.06,49.65,17.92,80h9.25c-8.09-31.09-14.06-58.14-18.37-81.63q-3.18-17.35-5.21-32.2c0-.22,0-.43-.09-.65C313,283.82,311.75,271.9,311,261.31Z"/><path class="cls-21" d="M212,257.12H610a3.44,3.44,0,0,1,3.43,3.43h0A3.44,3.44,0,0,1,610,264H212a3.44,3.44,0,0,1-3.43-3.43h0A3.45,3.45,0,0,1,212,257.12Z"/><path class="cls-45" d="M204.68,251.8H617.34a4.39,4.39,0,0,1,4.38,4.38h0a4.39,4.39,0,0,1-4.38,4.37H204.68a4.39,4.39,0,0,1-4.37-4.37h0A4.39,4.39,0,0,1,204.68,251.8Z"/><path class="cls-34" d="M552.43,251.8h9.1v8.75h-9.1V251.8Zm51.85,0h5.1v8.75h-5.1V251.8Zm-17.86,0H596.6v8.75H586.42V251.8Zm-10.46,0h2.36v8.75H576V251.8Zm-9.7,0H571v8.75h-4.73Z"/><path class="cls-46" d="M205,253.22h207.2a2.61,2.61,0,0,1,2.6,2.6h0a2.61,2.61,0,0,1-2.6,2.6H205a2.61,2.61,0,0,1-2.6-2.6h0A2.61,2.61,0,0,1,205,253.22Z"/><rect class="cls-13" x="16.98" y="411.68" width="629.06" height="8.32" rx="4.16"/><path class="cls-47" d="M123.55,306.75c12.81-6.81,16.07,8,11.08,20.27s-30.54,53.54-31.87,69.91c-.52,6.34-1.7,5.65-2.72,1.2C95,375.94,105.91,316.12,123.55,306.75Z"/><path class="cls-48" d="M96.42,250.53c-14.69-13.23-23.88,5.29-21.34,23.15S97.8,354.52,94.17,376.6c-1.41,8.56.38,8,3.19,2.48C111.35,351.42,116.65,268.74,96.42,250.53Z"/><path class="cls-49" d="M93.86,382.73c.32.82,1,.42,2-1,15.31-51-8.54-127.21-8.62-127.46a.8.8,0,0,0-1.52.47C85.75,255,109.93,332.29,93.86,382.73Z"/><path class="cls-24" d="M64.33,292.91c-14.23-6.2-16.47,9.88-10.13,22.55S91.24,370,94,387.38c1.08,6.72,2.29,5.88,3,1.05C100.56,364.34,83.93,301.44,64.33,292.91Z"/><path class="cls-17" d="M95.33,392c.44.54.86.06,1.21-1.19C95.25,349,58.52,298.19,58.4,298a.62.62,0,1,0-1,.73C57.5,298.92,94.74,350.45,95.33,392Z"/><polygon class="cls-50" points="84.38 382.77 111.73 382.77 118.87 389.21 113.03 411.68 98.05 411.68 83.07 411.68 77.24 389.21 84.38 382.77"/><rect class="cls-51" x="74.97" y="374.41" width="46.16" height="14.81" rx="2.26"/><polygon class="cls-52" points="118.87 389.21 117.67 393.83 78.44 393.83 77.24 389.21 118.87 389.21"/><path class="cls-53" d="M500.57,251.8h63a2.15,2.15,0,0,0,2.12-2h0a1.87,1.87,0,0,0-1.88-2h-63a2.15,2.15,0,0,0-2.12,2h0A1.87,1.87,0,0,0,500.57,251.8Z"/><path class="cls-54" d="M500.57,251.8h63a2.15,2.15,0,0,0,1.75-.94,1.86,1.86,0,0,0-1.64-1h-63a2.14,2.14,0,0,0-1.75,1A1.87,1.87,0,0,0,500.57,251.8Z"/><path class="cls-54" d="M499.25,247.8h50.43a2.44,2.44,0,0,0,2.45-2.62l-2.07-32.66a2.83,2.83,0,0,0-2.78-2.62H496.86a2.44,2.44,0,0,0-2.46,2.62l2.07,32.66A2.83,2.83,0,0,0,499.25,247.8Z"/><path class="cls-7" d="M499.25,247.8h48.94a2.44,2.44,0,0,0,2.45-2.62l-2.06-32.66a2.84,2.84,0,0,0-2.79-2.62H496.86a2.44,2.44,0,0,0-2.46,2.62l2.07,32.66A2.83,2.83,0,0,0,499.25,247.8Z"/><path class="cls-55" d="M501.92,247.8h5l41.75-33.37-.12-1.91A2.82,2.82,0,0,0,548,211L501.92,247.8Zm40.41-37.9-45.54,36.39a2.51,2.51,0,0,1-.32-1.11l-.32-5.08,37.78-30.2Z"/><path class="cls-7" d="M552.15,251.8h11.46a2.15,2.15,0,0,0,2.12-2h0a1.87,1.87,0,0,0-1.88-2H552.39a2.16,2.16,0,0,0-2.12,2h0A1.87,1.87,0,0,0,552.15,251.8Z"/><path class="cls-56" d="M499.75,248.8H552.2a1.09,1.09,0,0,0,1.07-1h0a.94.94,0,0,0-.94-1H499.87a1.08,1.08,0,0,0-1.06,1h0A.93.93,0,0,0,499.75,248.8Z"/><path class="cls-57" d="M480.92,245.5H459.85a3.15,3.15,0,1,0,0,6.3h21.07a3.15,3.15,0,0,0,0-6.3Z"/><path class="cls-7" d="M433.79,245.87h26.94a2.8,2.8,0,0,1,2.79,2.78h0a2.8,2.8,0,0,1-2.79,2.78H433.79Z"/><path class="cls-58" d="M433.79,245.5a.37.37,0,0,0,0,.74h26.94a2.42,2.42,0,0,1,0,4.83H433.79a.37.37,0,1,0,0,.73h26.94a3.15,3.15,0,0,0,0-6.3Z"/><path class="cls-58" d="M480,248.65a3.18,3.18,0,0,0-3.15-3.15h2.74a3.15,3.15,0,0,1,0,6.3H476.8a3.12,3.12,0,0,0,2.22-.92A3.15,3.15,0,0,0,480,248.65Z"/><path class="cls-58" d="M476,248.65a3.18,3.18,0,0,0-3.15-3.15h2.74a3.15,3.15,0,0,1,0,6.3h-2.74a3.12,3.12,0,0,0,2.22-.92A3.15,3.15,0,0,0,476,248.65Z"/><path class="cls-59" d="M439.33,240h18.45a2.76,2.76,0,0,1,0,5.51H439.33a2.76,2.76,0,0,1,0-5.51Z"/><path class="cls-7" d="M480.6,240.31H457a2.45,2.45,0,0,0-2.44,2.44h0a2.44,2.44,0,0,0,2.44,2.43H480.6Z"/><path class="cls-60" d="M480.6,240a.32.32,0,0,1,0,.64H457a2.12,2.12,0,1,0,0,4.23H480.6a.32.32,0,0,1,0,.64H457a2.76,2.76,0,0,1,0-5.51Z"/><path class="cls-60" d="M440.18,242.75a2.77,2.77,0,0,1,2.76-2.76h-2.4a2.76,2.76,0,0,0,0,5.51h2.4a2.77,2.77,0,0,1-2.76-2.75Z"/><path class="cls-60" d="M443.65,242.75a2.79,2.79,0,0,1,.81-1.95,2.75,2.75,0,0,1,2-.81H444a2.76,2.76,0,0,0,0,5.51h2.4a2.75,2.75,0,0,1-2-.81A2.79,2.79,0,0,1,443.65,242.75Z"/><path class="cls-25" d="M473.43,234.47H459.71a2.75,2.75,0,0,0-1.95.81,2.75,2.75,0,0,0,0,3.9,2.75,2.75,0,0,0,1.95.81h13.72a2.76,2.76,0,0,0,0-5.52Z"/><path class="cls-7" d="M444,234.79h16.48a2.44,2.44,0,0,1,2.43,2.44h0a2.44,2.44,0,0,1-2.43,2.44H444Z"/><path class="cls-36" d="M444,234.47a.33.33,0,0,0,0,.65h16.48a2.07,2.07,0,0,1,1.49.62,2.1,2.1,0,0,1,0,3,2.08,2.08,0,0,1-1.49.63H444a.32.32,0,0,0-.32.32.33.33,0,0,0,.32.32h16.48a2.76,2.76,0,0,0,0-5.52Z"/><path class="cls-36" d="M472.58,237.23a2.77,2.77,0,0,0-2.75-2.76h2.39a2.76,2.76,0,0,1,0,5.52h-2.39a2.77,2.77,0,0,0,2.75-2.76Z"/><path class="cls-36" d="M469.11,237.23a2.77,2.77,0,0,0-2.76-2.76h2.4a2.75,2.75,0,0,1,1.95.81,2.75,2.75,0,0,1,0,3.9,2.75,2.75,0,0,1-1.95.81h-2.4a2.77,2.77,0,0,0,2.76-2.76Z"/><rect class="cls-61" x="415.94" y="41.22" width="96.26" height="45.49" rx="5.72"/><rect class="cls-12" x="413.66" y="38.44" width="96.26" height="45.49" rx="5.72"/><path class="cls-17" d="M425.56,63.74a8.57,8.57,0,1,1-6,2.51,8.53,8.53,0,0,1,6-2.51Zm5,3.57a7.06,7.06,0,1,0,2.06,5A7,7,0,0,0,430.55,67.31Z"/><path class="cls-17" d="M425.56,67.31a5,5,0,0,1,5,5,5,5,0,1,1-5-5ZM428,69.83a3.48,3.48,0,1,0,1,2.46A3.45,3.45,0,0,0,428,69.83Z"/><path class="cls-17" d="M425.56,73.81A1.52,1.52,0,1,0,424,72.29,1.52,1.52,0,0,0,425.56,73.81Z"/><path class="cls-1" d="M421.53,43.2h80.53a1.06,1.06,0,0,1,1.05,1.06h0a1.06,1.06,0,0,1-1.05,1.06H421.53a1.07,1.07,0,0,1-1.06-1.06h0A1.07,1.07,0,0,1,421.53,43.2Z"/><path class="cls-1" d="M421.53,49.68h80.53a1.06,1.06,0,0,1,1.05,1.06h0a1.06,1.06,0,0,1-1.05,1.06H421.53a1.07,1.07,0,0,1-1.06-1.06h0A1.07,1.07,0,0,1,421.53,49.68Z"/><path class="cls-1" d="M421.53,56.16h80.53a1.06,1.06,0,0,1,1.05,1.06h0a1.06,1.06,0,0,1-1.05,1.06H421.53a1.07,1.07,0,0,1-1.06-1.06h0A1.07,1.07,0,0,1,421.53,56.16Z"/><path class="cls-1" d="M439.78,62.64h62.28a1.06,1.06,0,0,1,1.05,1.06h0a1.06,1.06,0,0,1-1.05,1.06H439.78a1.06,1.06,0,0,1-1.06-1.06h0A1.06,1.06,0,0,1,439.78,62.64Z"/><path class="cls-1" d="M439.78,69.38h62.28a1.06,1.06,0,0,1,1.05,1.06h0a1.06,1.06,0,0,1-1.05,1.06H439.78a1.06,1.06,0,0,1-1.06-1.06h0A1.06,1.06,0,0,1,439.78,69.38Z"/><path class="cls-1" d="M439.78,76.13h62.28a1,1,0,0,1,1.05,1.05h0a1.05,1.05,0,0,1-1.05,1.06H439.78a1.05,1.05,0,0,1-1.06-1.06h0A1.05,1.05,0,0,1,439.78,76.13Z"/><path class="cls-24" d="M318.91,83.33H276.22A5.65,5.65,0,0,0,270.58,89v39.77a.63.63,0,0,0,1.08.44l9.6-9.6h37.65a5.65,5.65,0,0,0,5.63-5.64V89A5.64,5.64,0,0,0,318.91,83.33Z"/><path class="cls-7" d="M310.14,104.55a3.11,3.11,0,1,0-3.1-3.1A3.11,3.11,0,0,0,310.14,104.55Z"/><path class="cls-7" d="M297.56,104.55a3.11,3.11,0,1,0-3.1-3.1A3.11,3.11,0,0,0,297.56,104.55Z"/><path class="cls-7" d="M285,104.55a3.11,3.11,0,1,0-3.11-3.1A3.1,3.1,0,0,0,285,104.55Z"/><path class="cls-48" d="M579.51,43.13H536.83a5.65,5.65,0,0,0-5.64,5.63V88.53a.62.62,0,0,0,.39.58.6.6,0,0,0,.68-.14l9.61-9.6h37.64a5.66,5.66,0,0,0,5.64-5.64v-25A5.65,5.65,0,0,0,579.51,43.13Z"/><path class="cls-7" d="M570.75,64.35a3.11,3.11,0,1,0-3.11-3.1A3.1,3.1,0,0,0,570.75,64.35Z"/><path class="cls-7" d="M558.17,64.35a3.11,3.11,0,1,0-3.1-3.1A3.1,3.1,0,0,0,558.17,64.35Z"/><path class="cls-7" d="M545.59,64.35a3.11,3.11,0,1,0-3.1-3.1A3.11,3.11,0,0,0,545.59,64.35Z"/><path class="cls-2" d="M135.44,146.17a1.15,1.15,0,0,1,2.3,0v2.7h2.7a1.15,1.15,0,0,1,0,2.3h-2.7v2.7a1.15,1.15,0,0,1-2.3,0v-2.7h-2.7a1.15,1.15,0,0,1,0-2.3h2.7Z"/><path class="cls-9" d="M55.54,166.28a6.7,6.7,0,1,0,2,4.73,6.67,6.67,0,0,0-2-4.73Zm-1.44-6.64a12.17,12.17,0,0,1,2.62,1.12,11.84,11.84,0,0,1,2.3,1.73.41.41,0,0,0,.49.06l3.11-1.79h0a.76.76,0,0,1,.57-.07.8.8,0,0,1,.47.36v0l2.19,3.79a.77.77,0,0,1,.08.59.84.84,0,0,1-.36.47h0l-3.09,1.78a.41.41,0,0,0-.19.46h0a13,13,0,0,1,.26,1.41,13.59,13.59,0,0,1,.08,1.44,13.79,13.79,0,0,1-.08,1.45,13,13,0,0,1-.26,1.41.41.41,0,0,0,.21.47l3.09,1.78h0a.84.84,0,0,1,.36.47.74.74,0,0,1-.08.58L63.68,181h0a.78.78,0,0,1-.47.35.73.73,0,0,1-.59-.07h0l-3.09-1.79a.42.42,0,0,0-.49.06,11.89,11.89,0,0,1-2.3,1.74,12.11,12.11,0,0,1-2.64,1.12.42.42,0,0,0-.3.4v3.59a.79.79,0,0,1-.77.77h-4.4a.77.77,0,0,1-.55-.23.76.76,0,0,1-.22-.54v-3.59a.41.41,0,0,0-.32-.4,12,12,0,0,1-2.63-1.12,12.2,12.2,0,0,1-2.3-1.74.41.41,0,0,0-.51,0L39,181.27a.72.72,0,0,1-.59.07.73.73,0,0,1-.46-.35l0,0-2.19-3.8h0a.79.79,0,0,1-.07-.58.74.74,0,0,1,.36-.47l3.1-1.8a.4.4,0,0,0,.2-.45h0a13,13,0,0,1-.26-1.41A11.52,11.52,0,0,1,39,171a11.36,11.36,0,0,1,.09-1.44,13,13,0,0,1,.26-1.41.41.41,0,0,0-.22-.47L36,165.91a.76.76,0,0,1-.36-.47.82.82,0,0,1,.07-.59l0,0L37.94,161h0a.75.75,0,0,1,.46-.36.76.76,0,0,1,.59.08h0l3.11,1.79a.41.41,0,0,0,.5-.06,11.68,11.68,0,0,1,2.29-1.73,11.29,11.29,0,0,1,2.65-1.12.42.42,0,0,0,.3-.4v-3.59a.76.76,0,0,1,.22-.54.77.77,0,0,1,.55-.23H53a.79.79,0,0,1,.77.77v3.59A.4.4,0,0,0,54.1,159.64Z"/><path class="cls-9" d="M47.06,226.9A15.82,15.82,0,1,0,50.48,232a15.74,15.74,0,0,0-3.42-5.13Zm-5.68-2.07A14.23,14.23,0,0,1,46,227.94a14.32,14.32,0,0,1-4.65,23.35,14.31,14.31,0,1,1,0-26.46Zm1.74-11.61a25.14,25.14,0,0,1,2.91,1,24.23,24.23,0,0,1,2.79,1.4,28.62,28.62,0,0,1,2.64,1.74,27.61,27.61,0,0,1,2.4,2.05,1.63,1.63,0,0,0,.94.45,1.56,1.56,0,0,0,1-.21c2.32-1.33,4.75-2.66,7-4.05a1.12,1.12,0,0,1,.34-.11,1.26,1.26,0,0,1,.39,0,1.49,1.49,0,0,1,.36.17,1.05,1.05,0,0,1,.25.3c1.69,2.55,3.39,5.85,5,8.56a.85.85,0,0,1,.12.37.92.92,0,0,1,0,.4,1,1,0,0,1-.17.35,1,1,0,0,1-.29.26c-2.08,1.37-4.77,2.75-7,4a1.62,1.62,0,0,0-.69.78,1.42,1.42,0,0,0-.11.35l-.14,0,.16.65c.12.52.24,1,.33,1.54s.17,1,.23,1.55.12,1.06.15,1.57,0,1,0,1.59,0,1.08,0,1.58-.08,1.05-.15,1.58-.14,1.06-.23,1.55-.21,1-.33,1.54a1.62,1.62,0,0,0,.1,1.09,1.64,1.64,0,0,0,.75.77L68,249.74h0l.73.42a1,1,0,0,1,.29.26,1,1,0,0,1,.17.35.92.92,0,0,1,0,.4.85.85,0,0,1-.12.37l-4.58,7.92h0l-.37.64a.89.89,0,0,1-.25.29,1.22,1.22,0,0,1-.36.18,1.35,1.35,0,0,1-.4,0,1,1,0,0,1-.36-.13c-2.21-1.39-4.71-2.71-7-4a1.67,1.67,0,0,0-2,.23h0a26.33,26.33,0,0,1-2.41,2.05,27.19,27.19,0,0,1-2.63,1.74,25.36,25.36,0,0,1-2.81,1.4,24.11,24.11,0,0,1-3,1.05,1.69,1.69,0,0,0-.86.59,1.72,1.72,0,0,0-.34,1v8.07a1.22,1.22,0,0,1-.07.38,1,1,0,0,1-.22.32,1,1,0,0,1-.33.22.92.92,0,0,1-.38.08H31a.92.92,0,0,1-.38-.08.83.83,0,0,1-.33-.22A1,1,0,0,1,30,273a1,1,0,0,1-.07-.38v-8.07a1.67,1.67,0,0,0-1.28-1.61,25.66,25.66,0,0,1-2.9-1,25.21,25.21,0,0,1-2.8-1.4,27.19,27.19,0,0,1-2.63-1.74,27.86,27.86,0,0,1-2.4-2.05,1.68,1.68,0,0,0-1-.46,1.7,1.7,0,0,0-1.07.27l-6.9,4a1,1,0,0,1-.37.13,1.29,1.29,0,0,1-.39,0,1.22,1.22,0,0,1-.36-.18.79.79,0,0,1-.25-.29c-1.65-2.86-3.31-5.7-4.95-8.56a1,1,0,0,1-.13-.37,1.38,1.38,0,0,1,0-.4,1.06,1.06,0,0,1,.18-.35,1,1,0,0,1,.28-.26l7-4a1.62,1.62,0,0,0,.69-.78,1.43,1.43,0,0,0,.09-.27l.18,0-.18-.74c-.13-.52-.24-1-.33-1.54s-.17-1-.24-1.55-.11-1.06-.14-1.57-.05-1-.05-1.59,0-1.08.05-1.58.08-1,.14-1.57.15-1.07.24-1.57.2-1,.33-1.53a1.62,1.62,0,0,0-.11-1.09A1.67,1.67,0,0,0,10,230L3,226a1,1,0,0,1-.28-.26,1.06,1.06,0,0,1-.18-.35,1.38,1.38,0,0,1,0-.4,1,1,0,0,1,.13-.37c1.69-2.51,3.38-5.86,5-8.56a.91.91,0,0,1,.25-.3,1.49,1.49,0,0,1,.36-.17,1.29,1.29,0,0,1,.39,0,1,1,0,0,1,.37.13l7,4a1.63,1.63,0,0,0,1,.21,1.65,1.65,0,0,0,.95-.47,27.11,27.11,0,0,1,2.39-2A27.59,27.59,0,0,1,23,215.65a26.26,26.26,0,0,1,2.81-1.4,25.35,25.35,0,0,1,3-1.05,1.68,1.68,0,0,0,.87-.59,1.71,1.71,0,0,0,.33-1v-8.07a1,1,0,0,1,.07-.38,1,1,0,0,1,.22-.32.83.83,0,0,1,.33-.22.92.92,0,0,1,.38-.08h9.89a.92.92,0,0,1,.38.08,1,1,0,0,1,.33.22,1,1,0,0,1,.29.7v8.07a1.61,1.61,0,0,0,.36,1,1.69,1.69,0,0,0,.91.59Zm3.48-.31a27.08,27.08,0,0,1,2.95,1.48,26.23,26.23,0,0,1,2.78,1.84,27.58,27.58,0,0,1,2.54,2.16.16.16,0,0,0,.11.05.17.17,0,0,0,.12,0l7-4.07a2.58,2.58,0,0,1,.88-.28,2.65,2.65,0,0,1,.93.07,2.4,2.4,0,0,1,.86.43,2.31,2.31,0,0,1,.63.72c1.71,2.75,3.32,5.74,5,8.56a2.4,2.4,0,0,1,.31.91,2.37,2.37,0,0,1-.07,1,2.41,2.41,0,0,1-1.14,1.5c-2.25,1.39-4.69,2.7-7,4a.17.17,0,0,0-.08.09.17.17,0,0,0,0,.12l.16.66h0c.07.32.13.64.19,1,.1.56.19,1.11.25,1.65s.12,1.09.15,1.66.06,1.13.06,1.67,0,1.1-.06,1.67-.08,1.12-.15,1.66-.15,1.09-.25,1.64-.22,1.1-.35,1.62a.19.19,0,0,0,0,.13.27.27,0,0,0,.08.1c2.57,1.37,5.18,3,7.71,4.44l-.09.12.08.09a2.42,2.42,0,0,1,.42.87,2.37,2.37,0,0,1,.07,1,2.4,2.4,0,0,1-.31.91l-5.32,9.21-.1-.06-.16.13A2.41,2.41,0,0,1,63,262a2.45,2.45,0,0,1-.89-.29c-2.32-1.23-4.72-2.73-7-4.05a.17.17,0,0,0-.12,0,.16.16,0,0,0-.11.05,29,29,0,0,1-2.54,2.16,27.15,27.15,0,0,1-2.77,1.84,26.65,26.65,0,0,1-3,1.48,25.86,25.86,0,0,1-3.13,1.12.21.21,0,0,0-.1.06.28.28,0,0,0,0,.12v8.07a2.32,2.32,0,0,1-.19.94,2.39,2.39,0,0,1-.53.79,2.57,2.57,0,0,1-.8.54,2.47,2.47,0,0,1-.94.19H31a2.47,2.47,0,0,1-.94-.19,2.57,2.57,0,0,1-.8-.54,2.41,2.41,0,0,1-.54-.79,2.5,2.5,0,0,1-.19-.94v-8.07a.21.21,0,0,0,0-.12.26.26,0,0,0-.11-.07h0a27.68,27.68,0,0,1-3.1-1.1,28.17,28.17,0,0,1-3-1.48,27.29,27.29,0,0,1-2.78-1.84,28.84,28.84,0,0,1-2.53-2.16.2.2,0,0,0-.12-.06l-.12,0-7,4a2.46,2.46,0,0,1-.9.3A2.41,2.41,0,0,1,7,261.55a2.21,2.21,0,0,1-.62-.7c-1.84-3-3.57-6.18-5.32-9.21l.09,0a2,2,0,0,1,0-.24,2.52,2.52,0,0,1,.06-.95,2.62,2.62,0,0,1,.43-.87,2.44,2.44,0,0,1,.72-.63l7-4a.18.18,0,0,0,.08-.09.2.2,0,0,0,0-.13l-.18-.74h0c-.06-.29-.12-.58-.17-.87-.11-.56-.19-1.11-.26-1.65s-.11-1.09-.15-1.66-.05-1.13-.05-1.67,0-1.1.05-1.67.09-1.12.15-1.66.15-1.08.26-1.65.21-1.09.34-1.62a.17.17,0,0,0,0-.12.16.16,0,0,0-.09-.09l-7-4a2.43,2.43,0,0,1-.71-.64,2.4,2.4,0,0,1-.43-.86,2.52,2.52,0,0,1-.06-.95,2.59,2.59,0,0,1,.29-.89c1.67-3.08,3.57-6.19,5.33-9.24l.1.06.17-.13a2.4,2.4,0,0,1,.86-.43,2.57,2.57,0,0,1,1-.06,2.46,2.46,0,0,1,.9.3l.52.3h0l6.48,3.74a.27.27,0,0,0,.12,0,.24.24,0,0,0,.11-.06l0,0a27.58,27.58,0,0,1,2.53-2.15,26.38,26.38,0,0,1,2.76-1.83,28,28,0,0,1,6.1-2.6.14.14,0,0,0,.1-.06.15.15,0,0,0,0-.12v-8.07a2.5,2.5,0,0,1,.19-.94,2.41,2.41,0,0,1,.54-.79,2.57,2.57,0,0,1,.8-.54,2.47,2.47,0,0,1,.94-.19h9.89a2.47,2.47,0,0,1,.94.19,2.57,2.57,0,0,1,.8.54,2.42,2.42,0,0,1,.72,1.73v8.07a.25.25,0,0,0,0,.12.26.26,0,0,0,.11.07h0A27.15,27.15,0,0,1,46.6,212.91Z"/><path class="cls-2" d="M329.53,54.49a1.15,1.15,0,1,1,2.29,0v2.7h2.7a1.15,1.15,0,0,1,0,2.3h-2.7v2.7a1.15,1.15,0,1,1-2.29,0v-2.7h-2.7a1.15,1.15,0,1,1,0-2.3h2.7Z"/><path class="cls-2" d="M638.7,171.53a1.15,1.15,0,1,1,2.3,0v2.7h2.7a1.15,1.15,0,0,1,0,2.3H641v2.7a1.15,1.15,0,1,1-2.3,0v-2.7H636a1.15,1.15,0,1,1,0-2.3h2.7Z"/><path class="cls-2" d="M127.64,273.94a1.15,1.15,0,1,1,2.29,0v2.7h2.7a1.15,1.15,0,0,1,0,2.3h-2.7v2.7a1.15,1.15,0,1,1-2.29,0v-2.7h-2.7a1.15,1.15,0,0,1,0-2.3h2.7Z"/><path class="cls-2" d="M593.09,34.36a1.15,1.15,0,0,1,2.3,0v2.7h2.7a1.15,1.15,0,0,1,0,2.3h-2.7v2.7a1.15,1.15,0,0,1-2.3,0v-2.7h-2.7a1.15,1.15,0,1,1,0-2.3h2.7Z"/><path class="cls-7" d="M164.68,202.85a1.15,1.15,0,1,1,2.3,0v2.7h2.7a1.15,1.15,0,1,1,0,2.3H167v2.7a1.15,1.15,0,1,1-2.3,0v-2.7H162a1.15,1.15,0,1,1,0-2.3h2.7Z"/><path class="cls-7" d="M46.68,356.84a1.15,1.15,0,0,1,2.3,0v2.7h2.7a1.15,1.15,0,1,1,0,2.3H49v2.7a1.15,1.15,0,0,1-2.3,0v-2.7H44a1.15,1.15,0,0,1,0-2.3h2.7Z"/><path class="cls-7" d="M340.26,180.9a1.15,1.15,0,1,1,2.29,0v2.7h2.7a1.15,1.15,0,1,1,0,2.29h-2.7v2.7a1.15,1.15,0,1,1-2.29,0v-2.7h-2.7a1.15,1.15,0,1,1,0-2.29h2.7Z"/><path class="cls-7" d="M382.05,357.8a1.15,1.15,0,0,1,2.3,0v2.7h2.7a1.15,1.15,0,0,1,0,2.3h-2.7v2.7a1.15,1.15,0,1,1-2.3,0v-2.7h-2.7a1.15,1.15,0,1,1,0-2.3h2.7Z"/><path class="cls-7" d="M629.93,323.68a1.15,1.15,0,1,1,2.29,0v2.7h2.7a1.15,1.15,0,0,1,0,2.3h-2.7v2.7a1.15,1.15,0,1,1-2.29,0v-2.7h-2.71a1.15,1.15,0,0,1,0-2.3h2.71Z"/><path class="cls-7" d="M464.85,121.93a1.15,1.15,0,1,1,2.29,0v2.7h2.7a1.15,1.15,0,1,1,0,2.3h-2.7v2.7a1.15,1.15,0,0,1-2.29,0v-2.7h-2.71a1.15,1.15,0,0,1,0-2.3h2.71Z"/><path class="cls-7" d="M514.45,4.57a1.15,1.15,0,1,1,2.3,0v2.7h2.7a1.15,1.15,0,0,1,0,2.3h-2.7v2.7a1.15,1.15,0,1,1-2.3,0V9.57h-2.7a1.15,1.15,0,1,1,0-2.3h2.7Z"/><path class="cls-7" d="M382.05,24.23a1.15,1.15,0,0,1,2.3,0v2.7h2.7a1.15,1.15,0,0,1,0,2.3h-2.7v2.7a1.15,1.15,0,0,1-2.3,0v-2.7h-2.7a1.15,1.15,0,0,1,0-2.3h2.7Z"/><rect class="cls-62" x="302.39" y="202.6" width="36.3" height="44.79" rx="2.08"/><rect class="cls-12" x="335.38" y="202.6" width="30.54" height="44.79" rx="1.75"/><path class="cls-7" d="M297.66,219.61h33c0-4.39,4.73-4.87,4.73-4.87h-33S297.66,215.22,297.66,219.61Z"/><rect class="cls-37" x="301.02" y="240.18" width="36.58" height="11.62" rx="1.37"/><path class="cls-50" d="M335.44,240.18H341a2.62,2.62,0,0,1,2.24,1.71c.8,1.73.71,3.47,3.08,3.47h8.95c2.36,0,2.27-1.74,3.07-3.47a2.62,2.62,0,0,1,2.24-1.71h5.28a1.37,1.37,0,0,1,1.37,1.36v8.89a1.37,1.37,0,0,1-1.37,1.37H335.44a1.37,1.37,0,0,1-1.37-1.37v-8.89A1.36,1.36,0,0,1,335.44,240.18Z"/><path class="cls-7" d="M297.66,235h33c0-4.39,4.73-4.87,4.73-4.87h-33S297.66,230.56,297.66,235Z"/><path class="cls-63" d="M369.9,227.64H339.7a4.87,4.87,0,0,0-4.32-4.88h30.19S369.9,223.25,369.9,227.64Z"/><path class="cls-64" d="M338.92,207.46h25a.76.76,0,0,1,.75.76h0a.76.76,0,0,1-.75.75h-25a.76.76,0,0,1-.75-.75h0A.76.76,0,0,1,338.92,207.46Z"/><path class="cls-64" d="M338.92,215.75h25a.76.76,0,0,1,.75.76h0a.76.76,0,0,1-.75.75h-25a.76.76,0,0,1-.75-.75h0A.76.76,0,0,1,338.92,215.75Z"/><path class="cls-64" d="M338.92,233.07h25a.75.75,0,0,1,.75.75h0a.76.76,0,0,1-.75.75h-25a.76.76,0,0,1-.75-.75h0A.75.75,0,0,1,338.92,233.07Z"/><path class="cls-63" d="M306,206.85h25a.76.76,0,0,1,.75.76h0a.76.76,0,0,1-.75.75H306a.76.76,0,0,1-.75-.75h0A.76.76,0,0,1,306,206.85Z"/><path class="cls-63" d="M306,225.53h25a.76.76,0,0,1,.75.75h0a.76.76,0,0,1-.75.75H306a.76.76,0,0,1-.75-.75h0A.76.76,0,0,1,306,225.53Z"/><path class="cls-63" d="M306,237.47h25a.76.76,0,0,1,.75.76h0a.76.76,0,0,1-.75.75H306a.76.76,0,0,1-.75-.75h0A.76.76,0,0,1,306,237.47Z"/></g></g></svg>